# xmcd
#
# Track frame offsets: 
#        150
#        10800
#        23107
#        34222
#        44012
#        56597
#        67507
#        81882
#        94420
#        106810
#        116297
#        131075
#        142495
#        157237
#        169262
#        178532
#        193060
#        206957
#        218950
#        232297
#        244517
#        258620
#        272552
#        283767
#
# Disc length: 3929 seconds
#
# Revision: 2
# Processed by: cddbd v1.5.2PL0 Copyright (c) Steve Scherf et al.
# Submitted via: ExactAudioCopy v0.99pb4
#
DISCID=720f5718
DTITLE=Lightnin' Slim - Winter Time Blues
DYEAR=1998
DGENRE=Blues
TTITLE0=Mind Your Own Business
TTITLE1=Winter Time Blues
TTITLE2=Bad Luck Is Falling
TTITLE3=I'm Warning Your Time Baby
TTITLE4=You're Old Enough To Understand
TTITLE5=I'm Evil
TTITLE6=If You Ever Need Me
TTITLE7=Lonely Stranger aka Rocky Mountain Blues
TTITLE8=You Give Me The Blues
TTITLE9=You Know You're So Fine
TTITLE10=Don't Mistreat Me Baby
TTITLE11=You Move Me Baby
TTITLE12=The Strangest Feelin'
TTITLE13=Lonesome Cabin Blues
TTITLE14=Don't Start Me Talkin' (Alt Take)
TTITLE15=I Hate To See You Leave
TTITLE16=Sittin' And Thinkin'
TTITLE17=Darlin' You're The One
TTITLE18=Baby Please Come Back (Alt Take)
TTITLE19=I Been A Fool For You Darlin'
TTITLE20=Can't Life This Life Anymore
TTITLE21=I Can't Hear My Baby Calling
TTITLE22=A Stranger In Town
TTITLE23=Bad Luck Blues
EXTD=bitnick
EXTT0=
EXTT1=
EXTT2=
EXTT3=
EXTT4=
EXTT5=
EXTT6=
EXTT7=
EXTT8=
EXTT9=
EXTT10=
EXTT11=
EXTT12=
EXTT13=
EXTT14=
EXTT15=
EXTT16=
EXTT17=
EXTT18=
EXTT19=
EXTT20=
EXTT21=
EXTT22=
EXTT23=
PLAYORDER=
